<?xml version="1.0" encoding="UTF-8" standalone="no"?>
<svg width="200" height="200" viewBox="0 0 200 200" xmlns="http://www.w3.org/2000/svg">
  <defs>
    <linearGradient id="gradient" x1="0%" y1="0%" x2="100%" y2="100%">
      <stop offset="0%" stop-color="#6366F1" />
      <stop offset="100%" stop-color="#8B5CF6" />
    </linearGradient>
  </defs>
  
  <!-- Background Circle -->
  <circle cx="100" cy="100" r="90" fill="url(#gradient)" />
  
  <!-- Microphone Icon -->
  <g fill="white" transform="translate(60, 40) scale(3.5)">
    <path d="M12 2a3 3 0 0 0-3 3v7a3 3 0 0 0 6 0V5a3 3 0 0 0-3-3Z" />
    <path d="M19 10v2a7 7 0 0 1-14 0v-2" />
    <line x1="12" y1="19" x2="12" y2="22" />
  </g>
  
  <!-- Sound Waves -->
  <g stroke="white" stroke-width="3" fill="none">
    <path d="M 40,100 C 40,70 50,60 40,30" />
    <path d="M 160,100 C 160,70 150,60 160,30" />
  </g>
</svg>